# xmcd CD database file
#
# Track frame offsets:
#	150
#	10661
#	24571
#	45519
#	57023
#	76209
#	89922
#	102763
#	114083
#	128343
#	144161
#	159009
#
# Disc length: 2299 seconds
#
# Revision: 0
# Processed by: cddbd v1.5.2PL0 Copyright (c) Steve Scherf et al.
# Submitted via: CDex 1.51
#
DISCID=7a08f90c
DTITLE=Kevin Prendergast - Cottage By The Sea
DYEAR=1900
DGENRE=Country
TTITLE0=Wait A Little Longer, Please Jesus
TTITLE1=Bring Me Back To Old Ireland
TTITLE2=Cottage By The Sea
TTITLE3=Sunset Years Of Life
TTITLE4=I'm Going To California
TTITLE5=Emigrants Dream
TTITLE6=Lovely Achill Island
TTITLE7=Dim Lights
TTITLE8=Fraulein
TTITLE9=Here I Am
TTITLE10=Home Of Donegal
TTITLE11=Full Deck Of Cards
EXTD=
EXTT0=
EXTT1=
EXTT2=
EXTT3=
EXTT4=
EXTT5=
EXTT6=
EXTT7=
EXTT8=
EXTT9=
EXTT10=
EXTT11=
PLAYORDER=
